<svg xmlns="http://www.w3.org/2000/svg" viewBox="0 0 1080 1080" role="img" aria-label="CDL ESSENTIALS">
<defs>
  <linearGradient id="emerald" x1="0" y1="0" x2="0" y2="1">
    <stop offset="0%" stop-color="#0A2F1F"/>
    <stop offset="100%" stop-color="#051B12"/>
  </linearGradient>
  <linearGradient id="goldShine" x1="0" y1="0" x2="0" y2="1">
    <stop offset="0%" stop-color="#F0D87C"/>
    <stop offset="45%" stop-color="#E6CC73"/>
    <stop offset="100%" stop-color="#CCAD42"/>
  </linearGradient>
  <linearGradient id="goldFlat" x1="0" y1="0" x2="0" y2="1">
    <stop offset="0%" stop-color="#E6CC73"/>
    <stop offset="100%" stop-color="#CCAD42"/>
  </linearGradient>
  <radialGradient id="tileGlow" cx="0.5" cy="0.5" r="0.55">
      <stop offset="0%" stop-color="#1F7A3A" stop-opacity="0.55"/>
      <stop offset="100%" stop-color="#1F7A3A" stop-opacity="0"/>
    </radialGradient>
</defs>
<rect width="1080" height="1080" fill="url(#emerald)"/>
<rect width="1080" height="1080" fill="url(#tileGlow)"/>
<!-- Category silhouette (R6 — 10% opacity hint) -->
<g transform="translate(540 580) scale(2.0)" fill="#7CC355" opacity="0.10"><rect x="-150" y="-180" width="300" height="380" rx="12"/><path d="M50 -180 L120 -180 L120 -80 L85 -110 L50 -80 Z"/></g>
<!-- Inner emerald frame -->
<rect x="20" y="20" width="1040" height="1040" fill="none" stroke="#CCAD42" stroke-width="1" opacity="0.22"/>
<!-- Gold corner stripe -->
<path d="M0 0 L140 0 L0 140 Z" fill="url(#goldShine)" opacity="0.95"/>

<!-- Foreground icon -->
<g transform="translate(540 420)">

<g stroke="#CCAD42" stroke-width="14" stroke-linecap="round" stroke-linejoin="round" fill="none">
  <rect x="-160" y="-200" width="320" height="400" rx="12" fill="#CCAD42" fill-opacity="0.20"/>
  <circle cx="-160" cy="-100" r="14" fill="#CCAD42" stroke="none"/>
  <circle cx="-160" cy="0" r="14" fill="#CCAD42" stroke="none"/>
  <circle cx="-160" cy="100" r="14" fill="#CCAD42" stroke="none"/>
  <line x1="-60" y1="-120" x2="120" y2="-120" stroke-width="10"/>
  <line x1="-60" y1="-60" x2="120" y2="-60" stroke-width="10"/>
  <line x1="-60" y1="0" x2="80" y2="0" stroke-width="10"/>
  <line x1="-60" y1="60" x2="120" y2="60" stroke-width="10"/>
  <path d="M80 -200 L 130 -200 L 130 -100 L 105 -120 L 80 -100 Z" fill="#F0D87C" stroke="none"/>
</g>
</g>

<!-- Label band -->
<rect x="0" y="870" width="1080" height="140" fill="url(#goldFlat)"/>
<text x="540" y="958" text-anchor="middle" font-family="Inter, 'Helvetica Neue', Arial, sans-serif" font-weight="800" font-size="64" fill="#0A2F1F" letter-spacing="6">CDL ESSENTIALS</text>
<rect x="0" y="1010" width="1080" height="6" fill="#0A2F1F"/>

<!-- R2 FIX: watermark now spGoldLight at 35% opacity (was srsGoldHighlight 65%) -->
<text x="540" y="850" text-anchor="middle" font-family="Inter, Arial, sans-serif" font-weight="500" font-size="24" fill="#E6CC73" opacity="0.35" letter-spacing="6">SACRED ROAD SUPPLY</text>
</svg>