<svg xmlns="http://www.w3.org/2000/svg" viewBox="0 0 1080 1080" role="img" aria-label="CLEANING">
<defs>
  <linearGradient id="emerald" x1="0" y1="0" x2="0" y2="1">
    <stop offset="0%" stop-color="#0A2F1F"/>
    <stop offset="100%" stop-color="#051B12"/>
  </linearGradient>
  <linearGradient id="goldShine" x1="0" y1="0" x2="0" y2="1">
    <stop offset="0%" stop-color="#F0D87C"/>
    <stop offset="45%" stop-color="#E6CC73"/>
    <stop offset="100%" stop-color="#CCAD42"/>
  </linearGradient>
  <linearGradient id="goldFlat" x1="0" y1="0" x2="0" y2="1">
    <stop offset="0%" stop-color="#E6CC73"/>
    <stop offset="100%" stop-color="#CCAD42"/>
  </linearGradient>
  <radialGradient id="tileGlow" cx="0.35" cy="0.4" r="0.55">
      <stop offset="0%" stop-color="#1F7A3A" stop-opacity="0.55"/>
      <stop offset="100%" stop-color="#1F7A3A" stop-opacity="0"/>
    </radialGradient>
</defs>
<rect width="1080" height="1080" fill="url(#emerald)"/>
<rect width="1080" height="1080" fill="url(#tileGlow)"/>
<!-- Category silhouette (R6 — 10% opacity hint) -->
<g transform="translate(540 580) scale(2.0)" fill="#7CC355" opacity="0.10"><path d="M-80 -80 L-80 180 Q-80 210 -50 210 L50 210 Q80 210 80 180 L80 -80 Z"/><rect x="-30" y="-120" width="60" height="40"/><path d="M30 -130 L 130 -130 L 130 -80 L 60 -80 L 60 -100 Z"/></g>
<!-- Inner emerald frame -->
<rect x="20" y="20" width="1040" height="1040" fill="none" stroke="#CCAD42" stroke-width="1" opacity="0.22"/>
<!-- Gold corner stripe -->
<path d="M0 0 L140 0 L0 140 Z" fill="url(#goldShine)" opacity="0.95"/>

<!-- Foreground icon -->
<g transform="translate(540 420)">

<g stroke="#CCAD42" stroke-width="14" stroke-linecap="round" stroke-linejoin="round" fill="none">
  <path d="M-90 -80 L -90 180 Q -90 210 -60 210 L 60 210 Q 90 210 90 180 L 90 -80 Z" fill="#CCAD42" fill-opacity="0.2"/>
  <rect x="-30" y="-120" width="60" height="40"/>
  <path d="M30 -130 L 130 -130 L 130 -80 L 60 -80"/>
  <rect x="125" y="-150" width="40" height="20" fill="#CCAD42" stroke="none"/>
  <circle cx="195" cy="-160" r="6" fill="#4A9D3F" stroke="none"/>
  <circle cx="215" cy="-130" r="6" fill="#4A9D3F" stroke="none"/>
  <circle cx="225" cy="-100" r="6" fill="#4A9D3F" stroke="none"/>
</g>
</g>

<!-- Label band -->
<rect x="0" y="870" width="1080" height="140" fill="url(#goldFlat)"/>
<text x="540" y="958" text-anchor="middle" font-family="Inter, 'Helvetica Neue', Arial, sans-serif" font-weight="800" font-size="64" fill="#0A2F1F" letter-spacing="6">CLEANING</text>
<rect x="0" y="1010" width="1080" height="6" fill="#0A2F1F"/>

<!-- R2 FIX: watermark now spGoldLight at 35% opacity (was srsGoldHighlight 65%) -->
<text x="540" y="850" text-anchor="middle" font-family="Inter, Arial, sans-serif" font-weight="500" font-size="24" fill="#E6CC73" opacity="0.35" letter-spacing="6">SACRED ROAD SUPPLY</text>
</svg>