<svg xmlns="http://www.w3.org/2000/svg" viewBox="0 0 1080 1080" role="img" aria-label="CAB COMFORT">
<defs>
  <linearGradient id="emerald" x1="0" y1="0" x2="0" y2="1">
    <stop offset="0%" stop-color="#0A2F1F"/>
    <stop offset="100%" stop-color="#051B12"/>
  </linearGradient>
  <linearGradient id="goldShine" x1="0" y1="0" x2="0" y2="1">
    <stop offset="0%" stop-color="#F0D87C"/>
    <stop offset="45%" stop-color="#E6CC73"/>
    <stop offset="100%" stop-color="#CCAD42"/>
  </linearGradient>
  <linearGradient id="goldFlat" x1="0" y1="0" x2="0" y2="1">
    <stop offset="0%" stop-color="#E6CC73"/>
    <stop offset="100%" stop-color="#CCAD42"/>
  </linearGradient>
  <radialGradient id="tileGlow" cx="0.5" cy="0.4" r="0.55">
      <stop offset="0%" stop-color="#1F7A3A" stop-opacity="0.55"/>
      <stop offset="100%" stop-color="#1F7A3A" stop-opacity="0"/>
    </radialGradient>
</defs>
<rect width="1080" height="1080" fill="url(#emerald)"/>
<rect width="1080" height="1080" fill="url(#tileGlow)"/>
<!-- Category silhouette (R6 — 10% opacity hint) -->
<g transform="translate(540 600) scale(2.2)" fill="#7CC355" opacity="0.10"><path d="M-130 -100 Q-160 -110 -170 -90 L-170 90 Q-170 120 -140 120 L140 120 Q170 120 170 90 L170 -50 Q170 -80 140 -90 L-50 -120 Z"/></g>
<!-- Inner emerald frame -->
<rect x="20" y="20" width="1040" height="1040" fill="none" stroke="#CCAD42" stroke-width="1" opacity="0.22"/>
<!-- Gold corner stripe -->
<path d="M0 0 L140 0 L0 140 Z" fill="url(#goldShine)" opacity="0.95"/>

<!-- Foreground icon -->
<g transform="translate(540 420)">

<g stroke="#CCAD42" stroke-width="14" stroke-linecap="round" stroke-linejoin="round" fill="none">
  <path d="M-150 -200 Q -180 -210 -190 -180 L -190 60 Q -190 90 -160 90 L -150 90"/>
  <path d="M-150 90 L 150 90 Q 180 90 180 60 L 180 -40 Q 180 -70 150 -80 L -90 -120"/>
  <ellipse cx="-100" cy="-60" rx="80" ry="55" stroke="#CCAD42" stroke-width="14" fill="#CCAD42" fill-opacity="0.25"/>
  <line x1="-100" y1="-105" x2="-100" y2="-15"/>
</g>
</g>

<!-- Label band -->
<rect x="0" y="870" width="1080" height="140" fill="url(#goldFlat)"/>
<text x="540" y="958" text-anchor="middle" font-family="Inter, 'Helvetica Neue', Arial, sans-serif" font-weight="800" font-size="64" fill="#0A2F1F" letter-spacing="6">CAB COMFORT</text>
<rect x="0" y="1010" width="1080" height="6" fill="#0A2F1F"/>

<!-- R2 FIX: watermark now spGoldLight at 35% opacity (was srsGoldHighlight 65%) -->
<text x="540" y="850" text-anchor="middle" font-family="Inter, Arial, sans-serif" font-weight="500" font-size="24" fill="#E6CC73" opacity="0.35" letter-spacing="6">SACRED ROAD SUPPLY</text>
</svg>