<svg xmlns="http://www.w3.org/2000/svg" viewBox="0 0 1200 630" role="img" aria-label="Sacred Road Supply social share">
  <defs>
    <linearGradient id="goldShine" x1="0" y1="0" x2="0" y2="1">
    <stop offset="0%" stop-color="#F0D87C"/>
    <stop offset="45%" stop-color="#E6CC73"/>
    <stop offset="100%" stop-color="#CCAD42"/>
  </linearGradient>
    <linearGradient id="goldFlat" x1="0" y1="0" x2="0" y2="1">
    <stop offset="0%" stop-color="#E6CC73"/>
    <stop offset="100%" stop-color="#CCAD42"/>
  </linearGradient>
    <linearGradient id="emerald" x1="0" y1="0" x2="0" y2="1">
    <stop offset="0%" stop-color="#0A2F1F"/>
    <stop offset="100%" stop-color="#051B12"/>
  </linearGradient>
    <linearGradient id="leaf" x1="0" y1="0" x2="0" y2="1">
    <stop offset="0%" stop-color="#7CC355"/>
    <stop offset="65%" stop-color="#4A9D3F"/>
    <stop offset="100%" stop-color="#1A4D26"/>
  </linearGradient>
    <radialGradient id="halo" cx="0.5" cy="0.45" r="0.6">
    <stop offset="0%" stop-color="#1F7A3A" stop-opacity="0.45"/>
    <stop offset="100%" stop-color="#1F7A3A" stop-opacity="0"/>
  </radialGradient>
  </defs>
  <!-- Emerald backdrop -->
  <rect width="1200" height="630" fill="url(#emerald)"/>
  <!-- Off-center glow -->
  <ellipse cx="600" cy="300" rx="700" ry="500" fill="url(#halo)"/>

  <!-- Gold rule top -->
  <rect x="0" y="0" width="1200" height="4" fill="url(#goldShine)"/>
  <!-- Gold rule bottom -->
  <rect x="0" y="626" width="1200" height="4" fill="url(#goldShine)"/>

  <!-- Compact tree mark left -->
  <g transform="translate(220 315)">
    <circle r="135" fill="url(#emerald)" stroke="url(#goldShine)" stroke-width="4"/>
    <circle r="125" fill="none" stroke="#CCAD42" stroke-width="1" opacity="0.4"/>
    <g transform="translate(0 30)">
      <path d="M-4,-30 Q-3,-10 -3,15 L-3,40 Q-4,46 -2,50 L2,50 Q4,46 3,40 L3,15 Q3,-10 4,-30 Z" fill="url(#goldShine)"/>
      <path d="M-2.1,50 L-1.4,64.0 Q0.0,66.8 1.4,64.0 L2.1,50 Z" fill="url(#goldShine)"/>
  <path d="M-3.1,50.0 Q-11.0,55.6 -15.4,61.2 Q-10.0,55.6 0.4,50.0 Z" fill="url(#goldShine)"/>
  <path d="M-0.4,50.0 Q10.0,55.6 15.4,61.2 Q11.0,55.6 3.1,50.0 Z" fill="url(#goldShine)"/>
  <path d="M-3.1,50.0 Q-15.7,52.1 -22.4,55.6 Q-15.1,52.1 -1.0,50.0 Z" fill="url(#goldFlat)" opacity="0.85"/>
  <path d="M1.0,50.0 Q15.1,52.1 22.4,55.6 Q15.7,52.1 3.1,50.0 Z" fill="url(#goldFlat)" opacity="0.85"/>
      <ellipse cx="0" cy="-40.0" rx="50.0" ry="55.0" fill="#1A4D26"/>
  <ellipse cx="0" cy="-45.0" rx="45.0" ry="50.0" fill="url(#leaf)"/>
  <path d="M-38.0,-31.0 Q-37.4,-32.8 -38.0,-49.0 Q-38.6,-47.2 -38.0,-31.0 Z" fill="#4A9D3F" opacity="0.9"/>
  <path d="M38.0,-31.0 Q38.6,-47.2 38.0,-49.0 Q37.4,-32.8 38.0,-31.0 Z" fill="#4A9D3F" opacity="0.9"/>
  <path d="M-30.0,-16.0 Q-27.5,-18.2 -30.0,-34.0 Q-32.5,-31.8 -30.0,-16.0 Z" fill="#4A9D3F" opacity="0.9"/>
  <path d="M30.0,-16.0 Q32.5,-31.8 30.0,-34.0 Q27.5,-18.2 30.0,-16.0 Z" fill="#4A9D3F" opacity="0.9"/>
  <path d="M-14.0,-12.0 Q-8.5,-16.8 -14.0,-28.0 Q-19.5,-23.2 -14.0,-12.0 Z" fill="#4A9D3F" opacity="0.9"/>
  <path d="M14.0,-12.0 Q19.5,-23.2 14.0,-28.0 Q8.5,-16.8 14.0,-12.0 Z" fill="#4A9D3F" opacity="0.9"/>
  <path d="M0.0,-6.5 Q6.8,-15.0 0.0,-23.5 Q-6.8,-15.0 0.0,-6.5 Z" fill="#4A9D3F" opacity="0.9"/>
  <path d="M0.0,-79.0 Q-8.8,-90.0 0.0,-101.0 Q8.8,-90.0 0.0,-79.0 Z" fill="#7CC355"/>
  <path d="M-15.0,-78.0 Q-22.3,-84.6 -15.0,-98.0 Q-7.7,-91.4 -15.0,-78.0 Z" fill="#7CC355"/>
  <path d="M15.0,-78.0 Q7.7,-91.4 15.0,-98.0 Q22.3,-84.6 15.0,-78.0 Z" fill="#7CC355"/>
  <path d="M-28.0,-69.0 Q-33.1,-72.9 -28.0,-87.0 Q-22.9,-83.1 -28.0,-69.0 Z" fill="#7CC355"/>
  <path d="M28.0,-69.0 Q22.9,-83.1 28.0,-87.0 Q33.1,-72.9 28.0,-69.0 Z" fill="#7CC355"/>
  <path d="M-42.0,-50.0 Q-44.1,-52.3 -42.0,-70.0 Q-39.9,-67.7 -42.0,-50.0 Z" fill="#7CC355"/>
  <path d="M42.0,-50.0 Q39.9,-67.7 42.0,-70.0 Q44.1,-52.3 42.0,-50.0 Z" fill="#7CC355"/>
  <path d="M-22.0,-62.0 Q-27.5,-66.8 -22.0,-78.0 Q-16.5,-73.2 -22.0,-62.0 Z" fill="#7CC355"/>
  <path d="M22.0,-62.0 Q16.5,-73.2 22.0,-78.0 Q27.5,-66.8 22.0,-62.0 Z" fill="#7CC355"/>
  <path d="M0.0,-79.0 Q-8.8,-90.0 0.0,-101.0 Q8.8,-90.0 0.0,-79.0 Z" fill="none" stroke="#F5F0E1" stroke-width="0.5" opacity="0.4"/>
    </g>
  </g>

  <!-- Wordmark right -->
  <g transform="translate(420 220)">
    <text font-family="Georgia, 'Playfair Display', serif" font-weight="700" font-size="76" fill="url(#goldShine)" letter-spacing="2">SACRED ROAD</text>
    <text y="74" font-family="Georgia, 'Playfair Display', serif" font-weight="700" font-size="76" fill="url(#leaf)" letter-spacing="2">SUPPLY</text>
    <rect x="0" y="92" width="560" height="3" fill="url(#goldShine)"/>
    <text y="138" font-family="'Inter', Arial, sans-serif" font-weight="600" font-size="20" fill="#F5F0E1" letter-spacing="6">— BUILT FOR THE LONG HAUL —</text>
    <text y="190" font-family="'Inter', Arial, sans-serif" font-weight="500" font-size="22" fill="#F5F0E1" opacity="0.85">shop.sacredpathway.org</text>
  </g>
</svg>